<?xml version="1.0" encoding="utf-8"?>
<!-- Generator: Adobe Illustrator 16.0.0, SVG Export Plug-In . SVG Version: 6.00 Build 0)  -->
<!DOCTYPE svg PUBLIC "-//W3C//DTD SVG 1.1//EN" "http://www.w3.org/Graphics/SVG/1.1/DTD/svg11.dtd">
<svg version="1.1" id="Capa_1" xmlns="http://www.w3.org/2000/svg" xmlns:xlink="http://www.w3.org/1999/xlink" x="0px" y="0px"
	 width="2500px" height="1900px" viewBox="0 0 2500 1900" enable-background="new 0 0 2500 1900" xml:space="preserve">
<g id="Capa_2">
</g>
<g id="Capa_2_1_">
</g>
<g id="Capa_2_2_">
</g>
<g id="Capa_2_3_">
</g>
<g id="Capa_2_4_">
</g>
<g id="Capa_2_5_">
</g>
<g id="Capa_2_6_">
</g>
<g id="Capa_2_7_">
</g>
<g id="Capa_2_8_">
</g>
<g id="Capa_2_9_">
</g>
<g>
	<path fill="none" d="M402.952,998.392H302.706c-9.95,0-18.944-2.052-25.229-5.313h-2.742c-4.002-2.685-6.36-5.957-6.36-9.48
		c0-9.021-15.448-16.398-34.333-16.398h-484.932c-18.882,0-34.333,7.378-34.333,16.398c0,3.523-2.359,6.796-6.352,9.475h-2.725
		c-6.29,3.263-15.292,5.319-25.255,5.319h-100.247c-18.883,0-34.333,15.451-34.333,34.333v8.848
		c0,18.887,15.45,34.332,34.333,34.332h100.247c18.882,0,34.332,8.179,34.332,18.169c0,9.991,15.452,18.17,34.333,18.17h484.932
		c18.885,0,34.333-8.179,34.333-18.17c0-9.99,15.449-18.169,34.33-18.169h100.246c18.885,0,34.336-15.445,34.336-34.332v-8.848
		C437.288,1013.843,421.836,998.392,402.952,998.392z"/>
	<g>
		<path fill="none" d="M402.952,998.392H302.706c-9.95,0-18.944-2.052-25.229-5.313h-2.742c-4.002-2.685-6.36-5.957-6.36-9.48
			c0-9.021-15.448-16.398-34.333-16.398h-484.932c-18.882,0-34.333,7.378-34.333,16.398c0,3.523-2.359,6.796-6.352,9.475h-2.725
			c-6.29,3.263-15.292,5.319-25.255,5.319h-100.247c-18.883,0-34.333,15.451-34.333,34.333v8.848
			c0,18.887,15.45,34.332,34.333,34.332h100.247c18.882,0,34.332,8.179,34.332,18.169c0,9.991,15.452,18.17,34.333,18.17h484.932
			c18.885,0,34.333-8.179,34.333-18.17c0-9.99,15.449-18.169,34.33-18.169h100.246c18.885,0,34.336-15.445,34.336-34.332v-8.848
			C437.288,1013.843,421.836,998.392,402.952,998.392z"/>
		<g>
			<path fill="none" d="M402.952,998.392H302.706c-9.95,0-18.944-2.052-25.229-5.313h-2.742c-4.002-2.685-6.36-5.957-6.36-9.48
				c0-9.021-15.448-16.398-34.333-16.398h-484.932c-18.882,0-34.333,7.378-34.333,16.398c0,3.523-2.359,6.796-6.352,9.475h-2.725
				c-6.29,3.263-15.292,5.319-25.255,5.319h-100.247c-18.883,0-34.333,15.451-34.333,34.333v8.848
				c0,18.887,15.45,34.332,34.333,34.332h100.247c18.882,0,34.332,8.179,34.332,18.169c0,9.991,15.452,18.17,34.333,18.17h484.932
				c18.885,0,34.333-8.179,34.333-18.17c0-9.99,15.449-18.169,34.33-18.169h100.246c18.885,0,34.336-15.445,34.336-34.332v-8.848
				C437.288,1013.843,421.836,998.392,402.952,998.392z"/>
			<g>
				<path fill="none" d="M402.952,998.392H302.706c-9.95,0-18.944-2.052-25.229-5.313h-2.742c-4.002-2.685-6.36-5.957-6.36-9.48
					c0-9.021-15.448-16.398-34.333-16.398h-484.932c-18.882,0-34.333,7.378-34.333,16.398c0,3.523-2.359,6.796-6.352,9.475h-2.725
					c-6.29,3.263-15.292,5.319-25.255,5.319h-100.247c-18.883,0-34.333,15.451-34.333,34.333v8.848
					c0,18.887,15.45,34.332,34.333,34.332h100.247c18.882,0,34.332,8.179,34.332,18.169c0,9.991,15.452,18.17,34.333,18.17h484.932
					c18.885,0,34.333-8.179,34.333-18.17c0-9.99,15.449-18.169,34.33-18.169h100.246c18.885,0,34.336-15.445,34.336-34.332v-8.848
					C437.288,1013.843,421.836,998.392,402.952,998.392z"/>
				<path fill="#BA007C" d="M479.735,911.674H155.326c-18.881,0-34.33-15.445-34.33-34.332V542.773h-0.621V374.639
					c0-8.19,2.932-15.715,7.765-21.635h1.357c6.281-6.807,15.269-11.088,25.21-11.088h169.375c9.945,0,18.929,4.281,25.215,11.088
					h1.355c4.831,5.92,7.762,13.444,7.762,21.635v169.744h0.619v97.804c0,18.881-15.445,34.332-34.33,34.332h-80.456
					c-18.881,0-34.333-15.451-34.333-34.332v-17.234c0-18.883,15.452-34.328,34.333-34.328h11.327
					c18.878,0,34.327-14.323,34.327-31.82c0-5.846-1.723-11.335-4.722-16.03h-1.702c-6.171-8.531-16.668-14.175-28.522-14.175
					h-61.488c-11.368,0-21.487,5.599-27.747,14.175h-0.492c-3.461,5.355-5.473,11.728-5.473,18.547v130.617
					c0,18.885,15.445,34.335,34.333,34.335h194.25c18.885,0,34.33-15.45,34.33-34.335V542.773h-0.621v-189.77v-1.609v-44.276
					c0-18.886-15.445-34.336-34.328-34.336h-0.895c-18.881,0-34.332-15.448-34.332-34.328v-11.739
					c0-18.883-10.511-34.328-23.358-34.328c-12.847,0-23.358,14.966-23.358,33.258c0,18.293-9.941,33.258-22.101,33.258
					c-12.157,0-22.107-15.452-22.107-34.332V149.2c0-18.88-15.445-34.33-34.332-34.33h-14.397c-18.883,0-34.333,15.45-34.333,34.33
					v94.749c0,18.882-15.445,34.332-34.332,34.332H68.81c-18.881,0-34.332,15.452-34.332,34.332v38.785v1.605v191.379h0.621v258.229
					c0,18.882-7.25,34.332-16.099,34.332c-8.856,0-24.245,0-34.201,0c-9.95,0-18.099-15.45-18.099-34.332V542.773h-0.619v-189.77
					v-1.609v-38.781c0-18.88-15.45-34.332-34.332-34.332h-75.371c-18.881,0-34.332-15.45-34.332-34.332V149.2
					c0-18.88-15.45-34.33-34.333-34.33h-14.394c-18.884,0-34.332,15.45-34.332,34.33v75.37c0,18.88-9.95,34.332-22.105,34.332
					c-12.16,0-22.101-14.965-22.101-33.258c0-18.292-10.516-33.258-23.363-33.258c-12.844,0-23.354,15.445-23.354,34.328v11.739
					c0,18.88-15.45,34.328-34.333,34.328h-0.89c-18.886,0-34.336,15.45-34.336,34.336v44.276v1.609v191.379h0.62v149.164
					c0,18.886,15.45,34.336,34.336,34.336h194.248c18.886,0,34.336-15.45,34.336-34.336V562.931c0-6.82-2.019-13.192-5.481-18.548
					h-0.62c-6.126-9.48-16.79-15.784-28.855-15.784h-61.486c-12.577,0-23.628,6.349-29.609,15.784h0.606
					c-2.99,4.715-4.709,10.194-4.709,16.031c0,17.496,15.452,31.819,34.333,31.819h11.324c18.882,0,34.336,15.446,34.336,34.328
					v17.234c0,18.882-15.455,34.332-34.336,34.332h-80.455c-18.882,0-34.329-15.45-34.329-34.332v-99.413h-0.62V374.639
					c0-8.19,2.925-15.715,7.76-21.635h1.357c6.286-6.807,15.269-11.088,25.211-11.088h169.383c9.933,0,18.925,4.281,25.207,11.088
					h1.357c4.837,5.92,7.768,13.444,7.768,21.635v169.744h0.62v332.959c0,18.887-15.453,34.332-34.332,34.332h-346.214
					c-18.883,0-34.333,15.451-34.333,34.333v45.468v1.604v134.584c0,18.886,15.45,34.336,34.333,34.336h326.83
					c18.885,0,34.332,15.447,34.332,34.328v147.387c0,18.885-15.447,34.333-34.332,34.333h-241.393
					c-18.886,0-34.332,15.45-34.332,34.336v14.347c0,18.882,15.445,34.33,34.332,34.33h112.338c18.884,0,34.332,9.958,34.332,22.129
					c0,12.17-15.447,22.129-34.332,22.129h-64.57c-2.59,0-5.115,0.27-7.538,0.788h-0.059c-15.258,3.229-26.735,15.943-26.735,31.027
					c0,17.498,15.445,31.819,34.332,31.819h130.21c18.881,0,34.332,9.365,34.332,20.816s-15.45,20.824-34.332,20.824H-411.42
					c-18.881,0-34.332,15.445-34.332,34.332v19.845c0,18.885,15.45,34.335,34.332,34.335h335.406
					c18.881,0,34.332-15.45,34.332-34.335v-66.987c0-18.88-9.957-34.331-22.127-34.331c-12.17,0-22.126-15.447-22.126-34.332
					v-23.003v-140.876c0-18.886,15.445-34.331,34.332-34.331h14.347c18.884,0,49.784,0,68.666,0h21.994
					c18.888,0,34.333,15.445,34.333,34.331v139.267v1.609v21.394c0,18.885-9.956,34.331-22.125,34.331
					c-12.173,0-22.129,15.452-22.129,34.332v66.987c0,18.885,15.452,34.335,34.33,34.335h335.409c18.875,0,34.33-15.45,34.33-34.335
					v-19.845c0-18.887-15.455-34.332-34.33-34.332H238.124c-18.884,0-34.333-9.373-34.333-20.824s15.449-20.816,34.333-20.816
					h130.209c18.881,0,34.33-14.321,34.33-31.819c0-15.084-11.475-27.799-26.732-31.017h-81.222
					c-14.521-2.58-25.286-11.169-25.286-21.318c0-12.171,15.455-22.129,34.336-22.129h112.339c18.888,0,34.333-15.448,34.333-34.33
					v-14.347c0-18.886-15.445-34.336-34.333-34.336H174.708c-18.885,0-34.336-15.448-34.336-34.333v-147.387
					c0-18.881,15.452-34.328,34.336-34.328h305.028c18.881,0,34.336-15.45,34.336-34.336V993.078v-1.604v-45.468
					C514.071,927.125,498.617,911.674,479.735,911.674z M437.288,1041.572c0,18.887-15.452,34.332-34.336,34.332H302.706
					c-18.881,0-34.33,8.179-34.33,18.169c0,9.991-15.448,18.17-34.333,18.17h-484.932c-18.882,0-34.333-8.179-34.333-18.17
					c0-9.99-15.45-18.169-34.332-18.169h-100.247c-18.883,0-34.333-15.445-34.333-34.332v-8.848
					c0-18.882,15.45-34.333,34.333-34.333h100.247c9.963,0,18.965-2.057,25.255-5.319h2.725c3.993-2.679,6.352-5.951,6.352-9.475
					c0-9.021,15.452-16.398,34.333-16.398h484.932c18.885,0,34.333,7.378,34.333,16.398c0,3.523,2.358,6.796,6.36,9.48h2.742
					c6.284,3.262,15.279,5.313,25.229,5.313h100.246c18.885,0,34.336,15.451,34.336,34.333V1041.572z"/>
			</g>
		</g>
	</g>
</g>
<g>
	<path fill="none" d="M2901.951,998.393h-100.246c-9.949,0-18.943-2.053-25.229-5.314h-2.74c-4.002-2.684-6.361-5.957-6.361-9.48
		c0-9.02-15.447-16.398-34.332-16.398H2248.11c-18.882,0-34.333,7.379-34.333,16.398c0,3.523-2.359,6.797-6.353,9.475h-2.725
		c-6.29,3.264-15.292,5.32-25.255,5.32h-100.247c-18.883,0-34.333,15.451-34.333,34.332v8.848c0,18.887,15.45,34.332,34.333,34.332
		h100.247c18.882,0,34.332,8.18,34.332,18.17s15.451,18.17,34.333,18.17h484.933c18.885,0,34.332-8.18,34.332-18.17
		s15.449-18.17,34.33-18.17h100.246c18.885,0,34.336-15.445,34.336-34.332v-8.848
		C2936.287,1013.844,2920.836,998.393,2901.951,998.393z"/>
	<g>
		<path fill="none" d="M2901.951,998.393h-100.246c-9.949,0-18.943-2.053-25.229-5.314h-2.74c-4.002-2.684-6.361-5.957-6.361-9.48
			c0-9.02-15.447-16.398-34.332-16.398H2248.11c-18.882,0-34.333,7.379-34.333,16.398c0,3.523-2.359,6.797-6.353,9.475h-2.725
			c-6.29,3.264-15.292,5.32-25.255,5.32h-100.247c-18.883,0-34.333,15.451-34.333,34.332v8.848c0,18.887,15.45,34.332,34.333,34.332
			h100.247c18.882,0,34.332,8.18,34.332,18.17s15.451,18.17,34.333,18.17h484.933c18.885,0,34.332-8.18,34.332-18.17
			s15.449-18.17,34.33-18.17h100.246c18.885,0,34.336-15.445,34.336-34.332v-8.848
			C2936.287,1013.844,2920.836,998.393,2901.951,998.393z"/>
		<g>
			<path fill="none" d="M2901.951,998.393h-100.246c-9.949,0-18.943-2.053-25.229-5.314h-2.74c-4.002-2.684-6.361-5.957-6.361-9.48
				c0-9.02-15.447-16.398-34.332-16.398H2248.11c-18.882,0-34.333,7.379-34.333,16.398c0,3.523-2.359,6.797-6.353,9.475h-2.725
				c-6.29,3.264-15.292,5.32-25.255,5.32h-100.247c-18.883,0-34.333,15.451-34.333,34.332v8.848
				c0,18.887,15.45,34.332,34.333,34.332h100.247c18.882,0,34.332,8.18,34.332,18.17s15.451,18.17,34.333,18.17h484.933
				c18.885,0,34.332-8.18,34.332-18.17s15.449-18.17,34.33-18.17h100.246c18.885,0,34.336-15.445,34.336-34.332v-8.848
				C2936.287,1013.844,2920.836,998.393,2901.951,998.393z"/>
			<g>
				<path fill="none" d="M2901.951,998.393h-100.246c-9.949,0-18.943-2.053-25.229-5.314h-2.74c-4.002-2.684-6.361-5.957-6.361-9.48
					c0-9.02-15.447-16.398-34.332-16.398H2248.11c-18.882,0-34.333,7.379-34.333,16.398c0,3.523-2.359,6.797-6.353,9.475h-2.725
					c-6.29,3.264-15.292,5.32-25.255,5.32h-100.247c-18.883,0-34.333,15.451-34.333,34.332v8.848
					c0,18.887,15.45,34.332,34.333,34.332h100.247c18.882,0,34.332,8.18,34.332,18.17s15.451,18.17,34.333,18.17h484.933
					c18.885,0,34.332-8.18,34.332-18.17s15.449-18.17,34.33-18.17h100.246c18.885,0,34.336-15.445,34.336-34.332v-8.848
					C2936.287,1013.844,2920.836,998.393,2901.951,998.393z"/>
				<path fill="#BA007C" d="M2978.734,911.674h-324.408c-18.881,0-34.33-15.445-34.33-34.332V542.773h-0.621V374.639
					c0-8.19,2.932-15.715,7.766-21.635h1.355c6.281-6.807,15.27-11.088,25.211-11.088h169.375c9.945,0,18.928,4.281,25.215,11.088
					h1.355c4.83,5.92,7.762,13.444,7.762,21.635v169.744h0.619v97.804c0,18.881-15.445,34.332-34.33,34.332h-80.455
					c-18.883,0-34.334-15.451-34.334-34.332v-17.234c0-18.883,15.451-34.328,34.334-34.328h11.326
					c18.879,0,34.326-14.323,34.326-31.82c0-5.846-1.723-11.335-4.721-16.03h-1.703c-6.17-8.531-16.668-14.175-28.521-14.175
					h-61.488c-11.367,0-21.486,5.599-27.746,14.175h-0.492c-3.461,5.355-5.473,11.728-5.473,18.547v130.617
					c0,18.885,15.445,34.335,34.332,34.335h194.252c18.885,0,34.33-15.45,34.33-34.335V542.773h-0.621v-189.77v-1.609v-44.276
					c0-18.886-15.445-34.336-34.328-34.336h-0.895c-18.883,0-34.332-15.448-34.332-34.328v-11.739
					c0-18.883-10.512-34.328-23.359-34.328c-12.846,0-23.357,14.966-23.357,33.258c0,18.293-9.941,33.258-22.102,33.258
					c-12.156,0-22.105-15.452-22.105-34.332V149.2c0-18.88-15.445-34.33-34.332-34.33h-14.396c-18.883,0-34.334,15.45-34.334,34.33
					v94.749c0,18.882-15.445,34.332-34.332,34.332h-75.367c-18.881,0-34.33,15.452-34.33,34.332v38.785v1.605v191.379h0.619v258.229
					c0,18.882-7.248,34.332-16.098,34.332c-8.857,0-24.246,0-34.202,0c-9.95,0-18.099-15.45-18.099-34.332V542.773h-0.619v-189.77
					v-1.609v-38.781c0-18.88-15.45-34.332-34.332-34.332h-75.37c-18.882,0-34.331-15.45-34.331-34.332V149.2
					c0-18.88-15.451-34.33-34.334-34.33h-14.394c-18.884,0-34.331,15.45-34.331,34.33v75.37c0,18.88-9.95,34.332-22.105,34.332
					c-12.16,0-22.102-14.965-22.102-33.258c0-18.292-10.516-33.258-23.362-33.258c-12.844,0-23.354,15.445-23.354,34.328v11.739
					c0,18.88-15.45,34.328-34.333,34.328h-0.891c-18.885,0-34.336,15.45-34.336,34.336v44.276v1.609v191.379h0.621v149.164
					c0,18.886,15.449,34.336,34.336,34.336h194.247c18.886,0,34.337-15.45,34.337-34.336V562.931c0-6.82-2.02-13.192-5.482-18.548
					h-0.619c-6.126-9.48-16.789-15.784-28.855-15.784h-61.486c-12.576,0-23.628,6.349-29.609,15.784h0.606
					c-2.989,4.715-4.71,10.194-4.71,16.031c0,17.496,15.452,31.819,34.334,31.819h11.323c18.882,0,34.337,15.446,34.337,34.328
					v17.234c0,18.882-15.455,34.332-34.337,34.332h-80.455c-18.882,0-34.329-15.45-34.329-34.332v-99.413h-0.619V374.639
					c0-8.19,2.925-15.715,7.76-21.635h1.357c6.285-6.807,15.269-11.088,25.211-11.088h169.383c9.934,0,18.926,4.281,25.207,11.088
					h1.357c4.837,5.92,7.768,13.444,7.768,21.635v169.744h0.62v332.959c0,18.887-15.453,34.332-34.331,34.332h-346.215
					c-18.883,0-34.333,15.451-34.333,34.333v45.468v1.604v134.584c0,18.887,15.45,34.336,34.333,34.336h326.83
					c18.885,0,34.331,15.447,34.331,34.328v147.387c0,18.885-15.446,34.334-34.331,34.334h-241.394
					c-18.886,0-34.331,15.449-34.331,34.336v14.346c0,18.883,15.445,34.33,34.331,34.33h112.339
					c18.884,0,34.331,9.959,34.331,22.129s-15.447,22.129-34.331,22.129h-64.57c-2.591,0-5.115,0.27-7.538,0.789h-0.06
					c-15.258,3.229-26.734,15.943-26.734,31.027c0,17.498,15.445,31.818,34.332,31.818h130.21c18.882,0,34.331,9.365,34.331,20.816
					s-15.449,20.824-34.331,20.824H2087.58c-18.882,0-34.332,15.445-34.332,34.332v19.846c0,18.885,15.45,34.334,34.332,34.334
					h335.406c18.881,0,34.331-15.449,34.331-34.334v-66.988c0-18.879-9.956-34.33-22.128-34.33
					c-12.17,0-22.125-15.447-22.125-34.332v-23.004V1365.24c0-18.887,15.445-34.332,34.331-34.332h14.347
					c18.884,0,49.783,0,68.666,0h21.994c18.887,0,34.332,15.445,34.332,34.332v139.266v1.609v21.395
					c0,18.885-9.955,34.33-22.125,34.33c-12.174,0-22.129,15.453-22.129,34.332v66.988c0,18.885,15.451,34.334,34.33,34.334h335.408
					c18.875,0,34.33-15.449,34.33-34.334v-19.846c0-18.887-15.455-34.332-34.33-34.332h-175.096
					c-18.885,0-34.332-9.373-34.332-20.824s15.447-20.816,34.332-20.816h130.209c18.881,0,34.33-14.32,34.33-31.818
					c0-15.084-11.475-27.799-26.732-31.018h-81.221c-14.521-2.58-25.287-11.168-25.287-21.318c0-12.17,15.455-22.129,34.338-22.129
					h112.338c18.889,0,34.334-15.447,34.334-34.33v-14.346c0-18.887-15.445-34.336-34.334-34.336h-241.391
					c-18.885,0-34.336-15.449-34.336-34.334v-147.387c0-18.881,15.451-34.328,34.336-34.328h305.027
					c18.883,0,34.336-15.449,34.336-34.336V993.078v-1.604v-45.468C3013.07,927.125,2997.617,911.674,2978.734,911.674z
					 M2936.287,1041.572c0,18.887-15.451,34.332-34.336,34.332h-100.246c-18.881,0-34.33,8.18-34.33,18.17
					s-15.447,18.17-34.332,18.17H2248.11c-18.882,0-34.333-8.18-34.333-18.17s-15.45-18.17-34.332-18.17h-100.247
					c-18.883,0-34.333-15.445-34.333-34.332v-8.848c0-18.881,15.45-34.332,34.333-34.332h100.247c9.963,0,18.965-2.057,25.255-5.32
					h2.725c3.993-2.678,6.353-5.951,6.353-9.475c0-9.02,15.451-16.398,34.333-16.398h484.933c18.885,0,34.332,7.379,34.332,16.398
					c0,3.523,2.359,6.797,6.361,9.48h2.74c6.285,3.262,15.279,5.314,25.229,5.314h100.246c18.885,0,34.336,15.451,34.336,34.332
					V1041.572z"/>
			</g>
		</g>
	</g>
</g>
</svg>
