<?xml version="1.0" encoding="utf-8"?>
<!-- Generator: Adobe Illustrator 16.0.0, SVG Export Plug-In . SVG Version: 6.00 Build 0)  -->
<!DOCTYPE svg PUBLIC "-//W3C//DTD SVG 1.1//EN" "http://www.w3.org/Graphics/SVG/1.1/DTD/svg11.dtd">
<svg version="1.1" id="Capa_1" xmlns="http://www.w3.org/2000/svg" xmlns:xlink="http://www.w3.org/1999/xlink" x="0px" y="0px"
	 width="2500px" height="1900px" viewBox="0 0 2500 1900" enable-background="new 0 0 2500 1900" xml:space="preserve">
<g id="Capa_2">
</g>
<g id="Capa_2_1_">
</g>
<g id="Capa_2_2_">
</g>
<g id="Capa_2_3_">
</g>
<g id="Capa_2_4_">
</g>
<g id="Capa_2_5_">
</g>
<g id="Capa_2_6_">
</g>
<g id="Capa_2_7_">
</g>
<g id="Capa_2_8_">
</g>
<g id="Capa_2_9_">
</g>
<g>
	<path fill-rule="evenodd" clip-rule="evenodd" fill="#009BDB" d="M-846.612,952.34c0-120.98,389.729-219.052,870.501-219.052
		c480.765,0,870.495,98.072,870.495,219.052c0,120.977-389.729,219.045-870.495,219.045
		C-456.883,1171.385-846.612,1073.316-846.612,952.34 M-783.387,953.364c0,108.448,362.463,196.356,809.6,196.356
		c447.128,0,809.594-87.908,809.594-196.356c0-108.441-362.466-196.351-809.594-196.351
		C-420.924,757.014-783.387,844.923-783.387,953.364z"/>
	<path fill="none" stroke="#009BDB" stroke-width="0.27" stroke-miterlimit="3.864" d="M-846.612,952.34
		c0-120.98,389.729-219.052,870.501-219.052c480.765,0,870.495,98.072,870.495,219.052c0,120.977-389.729,219.045-870.495,219.045
		C-456.883,1171.385-846.612,1073.316-846.612,952.34z M-783.387,953.364c0,108.448,362.463,196.356,809.6,196.356
		c447.128,0,809.594-87.908,809.594-196.356c0-108.441-362.466-196.351-809.594-196.351
		C-420.924,757.014-783.387,844.923-783.387,953.364z"/>
	<path fill-rule="evenodd" clip-rule="evenodd" fill="#009BDB" d="M29.315,1813.188c-120.983,0-219.065-389.697-219.065-870.436
		c0-480.732,98.082-870.435,219.065-870.435c120.994,0,219.068,389.702,219.068,870.435
		C248.383,1423.49,150.309,1813.188,29.315,1813.188 M30.347,1749.967c108.448,0,196.363-362.436,196.363-809.537
		c0-447.098-87.915-809.537-196.363-809.537c-108.452,0-196.368,362.439-196.368,809.537
		C-166.021,1387.531-78.105,1749.967,30.347,1749.967z"/>
	<path fill="none" stroke="#009BDB" stroke-width="0.27" stroke-miterlimit="3.864" d="M29.315,1813.188
		c-120.983,0-219.065-389.697-219.065-870.436c0-480.732,98.082-870.435,219.065-870.435c120.994,0,219.068,389.702,219.068,870.435
		C248.383,1423.49,150.309,1813.188,29.315,1813.188z M30.347,1749.967c108.448,0,196.363-362.436,196.363-809.537
		c0-447.098-87.915-809.537-196.363-809.537c-108.452,0-196.368,362.439-196.368,809.537
		C-166.021,1387.531-78.105,1749.967,30.347,1749.967z"/>
	<path fill="#BA007C" d="M-587.894,1580.453c-72.814-72.811,65.757-333.525,318.247-619.145
		C-524.002,674.404-663.93,411.95-590.829,338.854c73.14-73.136,335.886,66.991,623.021,321.62
		c282.413-247.891,538.865-383.12,610.987-311.003c72.203,72.191-63.408,329.106-311.826,611.861
		c246.545,281.428,380.803,536.598,308.89,608.508c-71.871,71.857-326.79-62.178-608.041-308.418
		C-253.784,1514.412-514.993,1653.346-587.894,1580.453 M-253.72,943.434c39.616-44.139,81.886-88.793,126.46-133.365
		c47.833-47.826,95.761-93.003,143.054-135.1c-262.583-231.842-499.727-360.17-564.476-295.42
		C-613.388,444.25-485.27,681.089-253.72,943.434z M316.602,977.994c-41.793,46.9-86.624,94.434-134.057,141.855
		c-44.167,44.176-88.426,86.086-132.19,125.393c255.126,221.537,482.681,342.381,545.906,279.166
		C659.527,1461.145,538.458,1233.322,316.602,977.994z M-542.454,1536.479c64.218,64.219,298.011-61.488,558.008-289.736
		c-48.163-42.781-97.009-88.768-145.749-137.51c-43.384-43.377-84.598-86.842-123.292-129.835
		C-481.253,1239.025-606.603,1472.334-542.454,1536.479z M33.707,1230.682c44.621-39.809,89.917-82.551,135.158-127.793
		c47.342-47.34,91.956-94.736,133.327-141.363c-43.113-48.886-89.821-98.667-139.553-148.384
		C119.491,769.99,76.292,729.108,33.67,690.879c-46.99,41.652-94.778,86.604-142.503,134.325
		c-45.634,45.625-88.719,91.305-128.82,136.287c38.324,42.741,79.314,86.052,122.593,129.323
		C-65.209,1140.664-15.303,1187.48,33.707,1230.682z M316.846,944.893c225.65-258.102,349.472-489.445,285.639-553.279
		c-63.758-63.753-294.657,59.695-552.415,284.835c42.894,38.62,86.252,79.732,129.538,123.006
		C228.247,848.091,274.148,896.822,316.846,944.893z"/>
	<path fill="none" stroke="#BA007C" stroke-width="1.539" stroke-miterlimit="3.864" d="M-587.894,1580.453
		c-72.814-72.811,65.757-333.525,318.247-619.145C-524.002,674.404-663.93,411.95-590.829,338.854
		c73.14-73.136,335.886,66.991,623.021,321.62c282.413-247.891,538.865-383.12,610.987-311.003
		c72.203,72.191-63.408,329.106-311.826,611.861c246.545,281.428,380.803,536.598,308.89,608.508
		c-71.871,71.857-326.79-62.178-608.041-308.418C-253.784,1514.412-514.993,1653.346-587.894,1580.453z M-253.72,943.434
		c39.616-44.139,81.886-88.793,126.46-133.365c47.833-47.826,95.761-93.003,143.054-135.1
		c-262.583-231.842-499.727-360.17-564.476-295.42C-613.388,444.25-485.27,681.089-253.72,943.434z M316.602,977.994
		c-41.793,46.9-86.624,94.434-134.057,141.855c-44.167,44.176-88.426,86.086-132.19,125.393
		c255.126,221.537,482.681,342.381,545.906,279.166C659.527,1461.145,538.458,1233.322,316.602,977.994z M-542.454,1536.479
		c64.218,64.219,298.011-61.488,558.008-289.736c-48.163-42.781-97.009-88.768-145.749-137.51
		c-43.384-43.377-84.598-86.842-123.292-129.835C-481.253,1239.025-606.603,1472.334-542.454,1536.479z M33.707,1230.682
		c44.621-39.809,89.917-82.551,135.158-127.793c47.342-47.34,91.956-94.736,133.327-141.363
		c-43.113-48.886-89.821-98.667-139.553-148.384C119.491,769.99,76.292,729.108,33.67,690.879
		c-46.99,41.652-94.778,86.604-142.503,134.325c-45.634,45.625-88.719,91.305-128.82,136.287
		c38.324,42.741,79.314,86.052,122.593,129.323C-65.209,1140.664-15.303,1187.48,33.707,1230.682z M316.846,944.893
		c225.65-258.102,349.472-489.445,285.639-553.279c-63.758-63.753-294.657,59.695-552.415,284.835
		c42.894,38.62,86.252,79.732,129.538,123.006C228.247,848.091,274.148,896.822,316.846,944.893z"/>
	<path fill="#BA007C" d="M-44.296,126.28c0-39.851,32.313-72.167,72.174-72.167c39.858,0,72.174,32.316,72.174,72.167
		c0,39.855-32.316,72.17-72.174,72.17C-11.982,198.45-44.296,166.135-44.296,126.28z"/>
	<path fill="none" stroke="#BA007C" stroke-width="3.096" stroke-linecap="round" stroke-miterlimit="3.864" d="M-44.296,126.28
		c0-39.851,32.313-72.167,72.174-72.167c39.858,0,72.174,32.316,72.174,72.167c0,39.855-32.316,72.17-72.174,72.17
		C-11.982,198.45-44.296,166.135-44.296,126.28z"/>
	<path fill="#BA007C" d="M99.171,1524.521c0-39.854,32.315-72.168,72.175-72.168c39.862,0,72.174,32.314,72.174,72.168
		c0,39.863-32.312,72.17-72.174,72.17C131.486,1596.691,99.171,1564.385,99.171,1524.521z"/>
	<path fill="none" stroke="#BA007C" stroke-width="3.096" stroke-linecap="round" stroke-miterlimit="3.864" d="M99.171,1524.521
		c0-39.854,32.315-72.168,72.175-72.168c39.862,0,72.174,32.314,72.174,72.168c0,39.863-32.312,72.17-72.174,72.17
		C131.486,1596.691,99.171,1564.385,99.171,1524.521z"/>
	<path fill="#BA007C" d="M-607.13,800.3c0-39.863,32.315-72.171,72.175-72.171c39.861,0,72.174,32.308,72.174,72.171
		c0,39.854-32.313,72.163-72.174,72.163C-574.815,872.463-607.13,840.154-607.13,800.3z"/>
	<path fill="none" stroke="#BA007C" stroke-width="3.096" stroke-linecap="round" stroke-miterlimit="3.864" d="M-607.13,800.3
		c0-39.863,32.315-72.171,72.175-72.171c39.861,0,72.174,32.308,72.174,72.171c0,39.854-32.313,72.163-72.174,72.163
		C-574.815,872.463-607.13,840.154-607.13,800.3z"/>
	<path fill="#FEEE00" d="M249.747,450.557c0-39.856,32.313-72.169,72.164-72.169c39.87,0,72.178,32.313,72.178,72.169
		c0,39.855-32.309,72.168-72.178,72.168C282.06,522.725,249.747,490.413,249.747,450.557z"/>
	<path fill="none" stroke="#FEEE00" stroke-width="3.096" stroke-linecap="round" stroke-miterlimit="3.864" d="M249.747,450.557
		c0-39.856,32.313-72.169,72.164-72.169c39.87,0,72.178,32.313,72.178,72.169c0,39.855-32.309,72.168-72.178,72.168
		C282.06,522.725,249.747,490.413,249.747,450.557z"/>
	<path fill="#FEEE00" d="M-324.256,451.618c0-39.855,32.311-72.168,72.174-72.168c39.86,0,72.167,32.313,72.167,72.168
		c0,39.859-32.307,72.166-72.167,72.166C-291.945,523.784-324.256,491.478-324.256,451.618z"/>
	<path fill="none" stroke="#FEEE00" stroke-width="3.096" stroke-linecap="round" stroke-miterlimit="3.864" d="M-324.256,451.618
		c0-39.855,32.311-72.168,72.174-72.168c39.86,0,72.167,32.313,72.167,72.168c0,39.859-32.307,72.166-72.167,72.166
		C-291.945,523.784-324.256,491.478-324.256,451.618z"/>
	<path fill="#FEEE00" d="M-556.649,1267.285c0-39.865,32.316-72.166,72.17-72.166c39.86,0,72.174,32.301,72.174,72.166
		c0,39.855-32.314,72.162-72.174,72.162C-524.333,1339.447-556.649,1307.141-556.649,1267.285z"/>
	<path fill="none" stroke="#FEEE00" stroke-width="3.096" stroke-linecap="round" stroke-miterlimit="3.864" d="M-556.649,1267.285
		c0-39.865,32.316-72.166,72.17-72.166c39.86,0,72.174,32.301,72.174,72.166c0,39.855-32.314,72.162-72.174,72.162
		C-524.333,1339.447-556.649,1307.141-556.649,1267.285z"/>
	<path fill="#FEEE00" d="M533.083,1531.504c0-39.852,32.312-72.162,72.174-72.162c39.858,0,72.174,32.311,72.174,72.162
		c0,39.859-32.316,72.172-72.174,72.172C565.395,1603.676,533.083,1571.363,533.083,1531.504z"/>
	<path fill="none" stroke="#FEEE00" stroke-width="3.096" stroke-linecap="round" stroke-miterlimit="3.864" d="M533.083,1531.504
		c0-39.852,32.312-72.162,72.174-72.162c39.858,0,72.174,32.311,72.174,72.162c0,39.859-32.316,72.172-72.174,72.172
		C565.395,1603.676,533.083,1571.363,533.083,1531.504z"/>
</g>
<g id="Capa_2_19_">
</g>
<g id="Capa_2_18_">
</g>
<g id="Capa_2_17_">
</g>
<g id="Capa_2_16_">
</g>
<g id="Capa_2_15_">
</g>
<g id="Capa_2_14_">
</g>
<g id="Capa_2_13_">
</g>
<g id="Capa_2_12_">
</g>
<g id="Capa_2_11_">
</g>
<g id="Capa_2_10_">
</g>
<g>
	<path fill-rule="evenodd" clip-rule="evenodd" fill="#009BDB" d="M1612.886,952.34c0-120.98,389.729-219.052,870.501-219.052
		c480.766,0,870.494,98.072,870.494,219.052c0,120.977-389.729,219.045-870.494,219.045
		C2002.615,1171.385,1612.886,1073.316,1612.886,952.34 M1676.111,953.364c0,108.448,362.463,196.356,809.6,196.356
		c447.128,0,809.594-87.908,809.594-196.356c0-108.441-362.466-196.351-809.594-196.351
		C2038.574,757.014,1676.111,844.923,1676.111,953.364z"/>
	<path fill="none" stroke="#009BDB" stroke-width="0.27" stroke-miterlimit="3.864" d="M1612.886,952.34
		c0-120.98,389.729-219.052,870.501-219.052c480.766,0,870.494,98.072,870.494,219.052c0,120.977-389.729,219.045-870.494,219.045
		C2002.615,1171.385,1612.886,1073.316,1612.886,952.34z M1676.111,953.364c0,108.448,362.463,196.356,809.6,196.356
		c447.128,0,809.594-87.908,809.594-196.356c0-108.441-362.466-196.351-809.594-196.351
		C2038.574,757.014,1676.111,844.923,1676.111,953.364z"/>
	<path fill-rule="evenodd" clip-rule="evenodd" fill="#009BDB" d="M2488.812,1813.188c-120.982,0-219.064-389.697-219.064-870.436
		c0-480.732,98.082-870.435,219.064-870.435c120.994,0,219.068,389.702,219.068,870.435
		C2707.881,1423.49,2609.807,1813.188,2488.812,1813.188 M2489.845,1749.967c108.448,0,196.362-362.436,196.362-809.537
		c0-447.098-87.914-809.537-196.362-809.537c-108.452,0-196.368,362.439-196.368,809.537
		C2293.477,1387.531,2381.393,1749.967,2489.845,1749.967z"/>
	<path fill="none" stroke="#009BDB" stroke-width="0.27" stroke-miterlimit="3.864" d="M2488.812,1813.188
		c-120.982,0-219.064-389.697-219.064-870.436c0-480.732,98.082-870.435,219.064-870.435c120.994,0,219.068,389.702,219.068,870.435
		C2707.881,1423.49,2609.807,1813.188,2488.812,1813.188z M2489.845,1749.967c108.448,0,196.362-362.436,196.362-809.537
		c0-447.098-87.914-809.537-196.362-809.537c-108.452,0-196.368,362.439-196.368,809.537
		C2293.477,1387.531,2381.393,1749.967,2489.845,1749.967z"/>
	<path fill="#BA007C" d="M1871.604,1580.453c-72.814-72.811,65.757-333.525,318.247-619.145
		c-254.355-286.905-394.283-549.358-321.182-622.454c73.139-73.136,335.885,66.991,623.02,321.62
		c282.413-247.891,538.865-383.12,610.987-311.003c72.202,72.191-63.408,329.106-311.825,611.861
		c246.545,281.428,380.803,536.598,308.89,608.508c-71.87,71.857-326.79-62.178-608.04-308.418
		C2205.715,1514.412,1944.506,1653.346,1871.604,1580.453 M2205.778,943.434c39.616-44.139,81.886-88.793,126.46-133.365
		c47.832-47.826,95.762-93.003,143.055-135.1c-262.584-231.842-499.728-360.17-564.477-295.42
		C1846.11,444.25,1974.229,681.089,2205.778,943.434z M2776.1,977.994c-41.793,46.9-86.623,94.434-134.057,141.855
		c-44.167,44.176-88.426,86.086-132.189,125.393c255.127,221.537,482.681,342.381,545.906,279.166
		C3119.025,1461.145,2997.957,1233.322,2776.1,977.994z M1917.044,1536.479c64.218,64.219,298.011-61.488,558.008-289.736
		c-48.163-42.781-97.009-88.768-145.749-137.51c-43.383-43.377-84.598-86.842-123.292-129.835
		C1978.245,1239.025,1852.896,1472.334,1917.044,1536.479z M2493.205,1230.682c44.621-39.809,89.916-82.551,135.158-127.793
		c47.342-47.34,91.956-94.736,133.326-141.363c-43.113-48.886-89.82-98.667-139.553-148.384
		c-43.147-43.152-86.346-84.034-128.969-122.262c-46.99,41.652-94.778,86.604-142.504,134.325
		c-45.633,45.625-88.719,91.305-128.819,136.287c38.324,42.741,79.314,86.052,122.593,129.323
		C2394.289,1140.664,2444.195,1187.48,2493.205,1230.682z M2776.344,944.893c225.65-258.102,349.473-489.445,285.639-553.279
		c-63.758-63.753-294.656,59.695-552.414,284.835c42.894,38.62,86.252,79.732,129.537,123.006
		C2687.745,848.091,2733.646,896.822,2776.344,944.893z"/>
	<path fill="none" stroke="#BA007C" stroke-width="1.539" stroke-miterlimit="3.864" d="M1871.604,1580.453
		c-72.814-72.811,65.757-333.525,318.247-619.145c-254.355-286.905-394.283-549.358-321.182-622.454
		c73.139-73.136,335.885,66.991,623.02,321.62c282.413-247.891,538.865-383.12,610.987-311.003
		c72.202,72.191-63.408,329.106-311.825,611.861c246.545,281.428,380.803,536.598,308.89,608.508
		c-71.87,71.857-326.79-62.178-608.04-308.418C2205.715,1514.412,1944.506,1653.346,1871.604,1580.453z M2205.778,943.434
		c39.616-44.139,81.886-88.793,126.46-133.365c47.832-47.826,95.762-93.003,143.055-135.1
		c-262.584-231.842-499.728-360.17-564.477-295.42C1846.11,444.25,1974.229,681.089,2205.778,943.434z M2776.1,977.994
		c-41.793,46.9-86.623,94.434-134.057,141.855c-44.167,44.176-88.426,86.086-132.189,125.393
		c255.127,221.537,482.681,342.381,545.906,279.166C3119.025,1461.145,2997.957,1233.322,2776.1,977.994z M1917.044,1536.479
		c64.218,64.219,298.011-61.488,558.008-289.736c-48.163-42.781-97.009-88.768-145.749-137.51
		c-43.383-43.377-84.598-86.842-123.292-129.835C1978.245,1239.025,1852.896,1472.334,1917.044,1536.479z M2493.205,1230.682
		c44.621-39.809,89.916-82.551,135.158-127.793c47.342-47.34,91.956-94.736,133.326-141.363
		c-43.113-48.886-89.82-98.667-139.553-148.384c-43.147-43.152-86.346-84.034-128.969-122.262
		c-46.99,41.652-94.778,86.604-142.504,134.325c-45.633,45.625-88.719,91.305-128.819,136.287
		c38.324,42.741,79.314,86.052,122.593,129.323C2394.289,1140.664,2444.195,1187.48,2493.205,1230.682z M2776.344,944.893
		c225.65-258.102,349.473-489.445,285.639-553.279c-63.758-63.753-294.656,59.695-552.414,284.835
		c42.894,38.62,86.252,79.732,129.537,123.006C2687.745,848.091,2733.646,896.822,2776.344,944.893z"/>
	<path fill="#BA007C" d="M2415.202,126.28c0-39.851,32.313-72.167,72.175-72.167c39.857,0,72.174,32.316,72.174,72.167
		c0,39.855-32.316,72.17-72.174,72.17C2447.516,198.45,2415.202,166.135,2415.202,126.28z"/>
	<path fill="none" stroke="#BA007C" stroke-width="3.096" stroke-linecap="round" stroke-miterlimit="3.864" d="M2415.202,126.28
		c0-39.851,32.313-72.167,72.175-72.167c39.857,0,72.174,32.316,72.174,72.167c0,39.855-32.316,72.17-72.174,72.17
		C2447.516,198.45,2415.202,166.135,2415.202,126.28z"/>
	<path fill="#BA007C" d="M2558.669,1524.521c0-39.854,32.315-72.168,72.175-72.168c39.862,0,72.174,32.314,72.174,72.168
		c0,39.863-32.312,72.17-72.174,72.17C2590.984,1596.691,2558.669,1564.385,2558.669,1524.521z"/>
	<path fill="none" stroke="#BA007C" stroke-width="3.096" stroke-linecap="round" stroke-miterlimit="3.864" d="M2558.669,1524.521
		c0-39.854,32.315-72.168,72.175-72.168c39.862,0,72.174,32.314,72.174,72.168c0,39.863-32.312,72.17-72.174,72.17
		C2590.984,1596.691,2558.669,1564.385,2558.669,1524.521z"/>
	<path fill="#BA007C" d="M1852.368,800.3c0-39.863,32.315-72.171,72.175-72.171c39.861,0,72.174,32.308,72.174,72.171
		c0,39.854-32.312,72.163-72.174,72.163C1884.684,872.463,1852.368,840.154,1852.368,800.3z"/>
	<path fill="none" stroke="#BA007C" stroke-width="3.096" stroke-linecap="round" stroke-miterlimit="3.864" d="M1852.368,800.3
		c0-39.863,32.315-72.171,72.175-72.171c39.861,0,72.174,32.308,72.174,72.171c0,39.854-32.312,72.163-72.174,72.163
		C1884.684,872.463,1852.368,840.154,1852.368,800.3z"/>
	<path fill="#FEEE00" d="M2709.244,450.557c0-39.856,32.314-72.169,72.164-72.169c39.869,0,72.178,32.313,72.178,72.169
		c0,39.855-32.309,72.168-72.178,72.168C2741.559,522.725,2709.244,490.413,2709.244,450.557z"/>
	<path fill="none" stroke="#FEEE00" stroke-width="3.096" stroke-linecap="round" stroke-miterlimit="3.864" d="M2709.244,450.557
		c0-39.856,32.314-72.169,72.164-72.169c39.869,0,72.178,32.313,72.178,72.169c0,39.855-32.309,72.168-72.178,72.168
		C2741.559,522.725,2709.244,490.413,2709.244,450.557z"/>
	<path fill="#FEEE00" d="M2135.242,451.618c0-39.855,32.311-72.168,72.174-72.168c39.861,0,72.168,32.313,72.168,72.168
		c0,39.859-32.307,72.166-72.168,72.166C2167.553,523.784,2135.242,491.478,2135.242,451.618z"/>
	<path fill="none" stroke="#FEEE00" stroke-width="3.096" stroke-linecap="round" stroke-miterlimit="3.864" d="M2135.242,451.618
		c0-39.855,32.311-72.168,72.174-72.168c39.861,0,72.168,32.313,72.168,72.168c0,39.859-32.307,72.166-72.168,72.166
		C2167.553,523.784,2135.242,491.478,2135.242,451.618z"/>
	<path fill="#FEEE00" d="M1902.849,1267.285c0-39.865,32.316-72.166,72.171-72.166c39.859,0,72.174,32.301,72.174,72.166
		c0,39.855-32.314,72.162-72.174,72.162C1935.165,1339.447,1902.849,1307.141,1902.849,1267.285z"/>
	<path fill="none" stroke="#FEEE00" stroke-width="3.096" stroke-linecap="round" stroke-miterlimit="3.864" d="M1902.849,1267.285
		c0-39.865,32.316-72.166,72.171-72.166c39.859,0,72.174,32.301,72.174,72.166c0,39.855-32.314,72.162-72.174,72.162
		C1935.165,1339.447,1902.849,1307.141,1902.849,1267.285z"/>
	<path fill="#FEEE00" d="M2992.58,1531.504c0-39.852,32.312-72.162,72.175-72.162c39.858,0,72.175,32.311,72.175,72.162
		c0,39.859-32.316,72.172-72.175,72.172C3024.893,1603.676,2992.58,1571.363,2992.58,1531.504z"/>
	<path fill="none" stroke="#FEEE00" stroke-width="3.096" stroke-linecap="round" stroke-miterlimit="3.864" d="M2992.58,1531.504
		c0-39.852,32.312-72.162,72.175-72.162c39.858,0,72.175,32.311,72.175,72.162c0,39.859-32.316,72.172-72.175,72.172
		C3024.893,1603.676,2992.58,1571.363,2992.58,1531.504z"/>
</g>
</svg>
