<?xml version="1.0" encoding="utf-8"?>
<!-- Generator: Adobe Illustrator 25.4.1, SVG Export Plug-In . SVG Version: 6.00 Build 0)  -->
<svg version="1.1" id="Layer_1" xmlns="http://www.w3.org/2000/svg" xmlns:xlink="http://www.w3.org/1999/xlink" x="0px" y="0px"
	 viewBox="0 0 841.9 353" style="enable-background:new 0 0 841.9 353;" xml:space="preserve">
<style type="text/css">
	.st0{fill:#ECEBEA;stroke:#ED2F81;stroke-miterlimit:10;}
	.st1{fill-rule:evenodd;clip-rule:evenodd;fill:#ED256F;}
	.st2{fill-rule:evenodd;clip-rule:evenodd;fill:#ECEBEA;}
	.st3{fill-rule:evenodd;clip-rule:evenodd;fill:#ECEBEA;stroke:#ED2F81;stroke-miterlimit:10;}
</style>
<g>
	<path class="st0" d="M543.1,162.2c-0.3-1.9-0.6-3.7-0.9-5.6c-0.5-3.1-3.2-4.4-6-3c-1.4,0.7-3.5,0.3-4,2.8c-2.3-1.1-3.8,0.7-5.2,1.6
		c-3.1,1.9-6.9,2.3-9.7,4.9c-1.1,1-3.3,1.6-4.6,1.5c-3.5-0.5-6.6,1.9-10.2,1.2c-1.5-0.3-3.4,0.9-4.9-0.6c-0.9,0.6-1.5,0.9-2.4,1.4
		c-1.1-0.5-2.4-0.1-3.5-0.3c-3.1-0.3-6.1,0.1-9.1-0.5c-3.1-0.6-5.9-1.4-8.6-2.8c-1-0.6-2-0.6-3.2,0c-0.8-1.7-2.3-2-3.7-2.7
		c-1.4-0.8-3.2-1-4.4-2.4c-1.3-1.5-1.2-3.3-1.6-5.1c-1.6-0.3-3.1,1.4-4.6,0.1c-0.3-0.7-0.8-1.4-1.2-2.3c0.5-1.5,0.3-3.2,1-4.7
		c1.2-2.4,1.1-5.1,1.2-7.8c0.1-2.4-1-4.4-2.8-6.3c-1.5-0.2-3-1.1-4.4-1.8c-1.7-0.8-3.8-0.9-5.7-1.6c-2.9-1.1-5-5.1-4-8
		c1.3-4.2,4.6-6.1,8.5-7.6c0.7-2.4,2.9-3.5,4.9-4.5c3.1-1.8,6.3-3.5,9.8-4.8c3.8-1.4,7.6-3.1,11.6-4c3.7-0.8,7.4-1.2,11-2.4
		c1.4-0.5,3.1-0.4,4.6-0.2c4.8,0.8,9.5,1.3,14.4,1.7c6,0.5,11.3,3.1,16.7,5.6c2.1,1,4.4,1.3,6.3,3.5c1.2-3.5,0.8-6.4,0-9.4
		c-2.6-10.1-7.3-19.6-10.6-29.6c-3.7-10.9-9.4-20.8-16-30.2c-2.5-3.5-5.1-7-8-10.2c-2.7-3-5-6.4-8-9.2c-1.8-1.7-4.2-2.4-5.8-4.2
		h-56.1c-3.1,1-6.2,0.8-9.4,1c-4.3,0.3-8.7-0.3-12.9-1H367c-0.6,0.8-1.6,1-2.4,1.3c-8.7,3-15.2,8.7-20.2,16.2
		c-3.2,4.9-6.1,9.9-9.2,14.9c-4,6.5-5.8,13.8-9.3,20.4c-0.6,1-1,2.2-1.4,3.2c-4.8,10.8-7.4,22-7.9,33.7c-0.1,1-0.3,1.9,1.2,2.4
		c3-2.8,7.1-3.2,10.8-4.6c2.9-1.2,5.8-2.4,8.7-3.5c2.2-0.9,4.4-1.8,6.8-2.2c3.4-0.6,6.3-3.1,10.1-2.6c2.1,0.2,4.2,0.1,6.2,1.5
		c0.7,0.3,1.1-0.8,1.9-0.6c1.3,1.4,3.2,1.9,5,2.3c2.8,0.7,5.8,0.8,8,3.1c0.6,0.7,2,1,2.9,1c1.5-0.2,2.6,0.5,3.7,1.3
		c3.1,2.4,6.2,4.6,9.8,6.1c0.9,0.4,1.5,1.2,2.1,1.9c0.6,0.8,1.2,1.8,1.9,2.1c4,1.3,5.3,5.3,8.2,7.7c4,3.4,5.1,8.1,5.1,13.2
		c0,0.6-0.1,1.1,0,1.6c1.7,4.7-0.6,8.6-2.6,12.6c-0.6,1.1-1.2,2.3-1.4,3.5c-0.2,1.5-1.1,2.4-2.1,3.3c-0.4,3-0.4,3-1.9,4.4
		c-1.2,0.5-1.6-0.8-2.6-0.9c-1.6,1.7-2.8,3.7-4.7,4.9c-1.4-0.1-2.2-1.5-3.4-1c-0.8-1-1.4-1.7-1.9-2.4c-0.8-0.2-1.5,0.3-2.2,0.2
		c-3.3-0.8-6.7,0-9.6,1.5c-4.4,2.3-9.3,2.4-14,3.2c-3.5,0.6-7.1-0.5-10.5-0.7c-3.1-0.2-5.4-2.2-8.3-2.3c-4.1-0.3-7.6-2.3-11.6-3.1
		c-2.4-0.5-4.6-1.2-7.2-1.2c-1.2-1.2-2.8-1.5-4.3-2c-3.6-1.3-7.4-1.7-11-2.8c-4.3-1.2-8.3,1.4-8.5,5.8c-0.5,9.8,0.1,19.5,1,29.2
		c1,12.1,3.1,24,5.8,35.8c1.9,8.5,3.7,17,7.2,25c2.5,5.7,5.1,11.4,7.8,17c3.1,6.2,6.9,11.8,10.1,17.8c1.9,3.6,3.8,7.4,6.5,10.5
		c4.9,5.8,9,12.4,15.6,17c0.2,9.9,0.5,20.1,0.7,30.9c2.2-3.1,4.2-5.6,5.9-8.1c2.3-3.5,4.6-6.8,7.4-9.9c1.3-1.5,2.4-3.3,3.5-4.9
		c2.3-3.2,5.8-4.6,9.7-4.2c3.5,0.3,5.8,2.4,6.7,5.9c0.6,2.2,1.2,4.4,0.6,6.9c-0.3,0.9-0.1,2-0.1,3.7c1.8-2.4,3.3-3.9,4.4-5.8
		c0.8-1.6,1.8-3.1,2.8-4.6c2.8-4.5,8.4-5.8,13.3-4.4c2.8,0.8,4.4,2.9,5,5.7c0.7,3.3,0.8,6.5-0.4,9.7c-0.7,1.8-1.3,3.5-1.9,5.3
		c-0.6,1.7-1.2,3.4-1.7,5.1c-0.7,0.4-1.4,0.4-2.2-0.1c1.3-3.7,3.3-7.2,4.3-11.2c0.5-2.2,0.9-4.4,0.8-6.6c-0.1-4.2-2.4-6.2-6.5-6.8
		c-4.2-0.6-6.9,1.5-9.3,4.3c-1.6,1.9-2.8,4.2-4.3,6.2c-0.4,0.6-0.7,1.4-1.2,1.9c-3.8,3.3-5.3,7.8-7,12.2c-1,0.6-2,0.5-3.3,0.1
		c1.6-3.5,3.1-6.9,4.9-10.3c2.2-4.4,1.9-9-0.4-13.4c-0.6-1-1.4-1.5-2.4-1.9c-4.1-1.5-8,0.2-9.8,4.4c-0.5,1.2-1.2,2.2-2.3,3
		c-4,3.1-6.7,7.3-9,11.7c-1.2,2.4-3.5,4-4.3,6.5c-1,0.6-2,0.4-3,0.4h-0.8c0.1,0.1,0.1,0.3,0.1,0.4c55.1,0,110.1,0,165.2,0
		c-0.1-0.5-0.1-1-0.2-1.5l0,0c-2.8-4.9-6.7-8.9-10.3-12.6c-4.5-2.2-8-0.4-10.8,2.6c-2.8,2.9-2.5,7-2.7,10.8
		c-0.9,0.6-1.7,0.5-2.8,0.1c-1.5-5.9-1.9-12.4-7.1-17.1h-6.2c-1.7,0.8-3.1,2.3-4.6,3.7c-1.7,1.5-1.9,3.7-1.8,5.9c0.1,2.6,0,5.1,0,8
		c-1.5-1.7-1.7-9.2-0.8-11.9c1.5-4.1,5.7-5.4,8.5-8.2c1,0.1,2.2,0.3,3.5,0.4c0.5-4.4-0.5-9,0.3-13.3c8.5-6.8,15.5-14.8,21.9-23.4
		c8.5-11.4,14.4-24.1,20.1-36.9c6.5-14.4,10.3-29.6,12.8-45.1c1.2-7.6,1.9-15.3,2.6-23C543.7,174.5,544,168.4,543.1,162.2z
		 M374.8,335.4c2.5-1.7,5.1-2.8,6.5-5.5c1.2-2.4,2.4-4.9,4.9-6.3c-1.9,3.1-3.7,6.2-5.1,9.4C380.2,335.2,378.6,335.7,374.8,335.4z
		 M400.2,340.3c3.1-0.1,4.4-2.1,5.1-4.4c0.6-2,2-3.4,3.5-4.9c0,2.8-0.7,4.4-4.8,10.7C402.4,342.3,401.3,341.7,400.2,340.3z
		 M513.9,335.3c1.9,2.2,2.7,4.1,1.2,6.5C514.2,339.7,513.1,337.9,513.9,335.3z M501.3,341.5c-0.6,0.7-1,0.4-1.6,0.3
		C500.3,340.7,500.7,340.5,501.3,341.5z M477.4,337.8c0.7,1.2,2.3,2.3,0.8,4.2C477.5,340.5,476.8,339.3,477.4,337.8z M440.3,217.6
		c0.7,0.5,0.9,1.3,1.4,2.2c-1.3,1.3-3.1,2.2-4.8,1.9c-3.7-0.4-6.7,1-10.2,3.3c1.2-3.5,3.5-5.1,5.7-6.9
		C435.1,215.9,437.6,217.5,440.3,217.6z M416.9,67.9c1.5-11.8,4.2-23.4,5.5-35.2c0.1-0.6-0.1-1.5,1.1-2.3c0.9,4.2,1.7,8,2.6,11.9
		c1.7,7.4,3.7,14.8,5.3,22.2c1.4,6.2,1.3,12.6,0.3,18.9c-1.7,9.9-4.4,19.6-5.8,29.6c-0.3,1.9,0.2,4-1,5.9c-1.3-2.3-1.3-4.8-1.9-7.1
		c-1.6-6.8-3.2-13.6-4.9-20.4C416.2,83.8,415.9,76,416.9,67.9z M390.9,190c2.4-1.8,4.4-4.6,5.9-8.3c0.9,1.9,2.6,2.6,4.3,2.8
		c1.2,2.6,1.4,5.3,1.4,7.8c0,2.8-1.8,5.1-3.5,7.2c-0.8,1-1.9,0.5-3,0.6c-1.4,1.7-2.8,3.3-2.8,5.4c-5,2.1-4.2,6-2,12.1
		c1.2,0.3,2.6,0.6,3.7,0.8c3.9-1.2,5.6-4.6,7.8-7.5c2,1,1,2.7,1.4,4c1.9,4.1,5.8,5.6,9.8,7.2c1,2.8,4.9,3.1,6,6.2
		c1,2.7,4.2,4.4,3.7,8.3c-3.2-2.4-6.5-3.4-10.3-2.8c-0.9-0.1-0.9-1.3-1.9-1.9c-2.7,0.3-5.7-0.8-8.9,0c-0.8-1.4-2.4-1.3-3.9-1.3
		c-5.9,0.1-10.5-2.2-13.9-6.9c-0.6-0.8-1.5-1.2-1.7-1.7C381,210.4,384.5,200.3,390.9,190z M375.7,255.3c2.2-0.8,4.3,0.3,6.3,0.5
		c1.3,1.4,0.7,2.8,1.6,4.2c1.9-2.1,4.8,2.6,6.5-1c1.4-0.1,1.2,1.2,2,1.6c4,0.3,7.9,0.2,11.9,0.9c2.5,0.4,5.1-0.8,7.4-2.4
		c2,1,4.5,0.5,6.5,1.9c2,1.3,3.6,3.2,6.1,3.8c1.1-0.3,1.2-1.6,2.4-2.5c2.7,0.4,5.4-1.2,8.3-1.7c3.5-0.6,6.9-0.2,10.3-0.1
		c1.2,0.1,2.5,0.3,3.6,0.1c4.4,2.6,8.6,2.5,12.8-0.6c1.1-0.8,2.7-0.9,4.2-1.4c-1.5,4.4-4.4,6.4-8.8,6.7c-2,0.1-4,0.6-6.2,0.6
		c-1.7-2.2-4.9-0.8-7-2.7c-2.3,1.5-4.9,1.3-7.1,0.7c-2.1-0.6-4,0-5.9,0.1c-1.4,0.1-2.7,1-3.7,2.2s-2.4,1.9-4,1.4
		c-2.6-0.9-5.3-1.2-7.9-1.5c-1.2-0.1-1.7-1.2-2.2-1.2c-8.6-1.2-16.6-1.9-24.6-2.2c-3.1,2.5-3.1,2.8-1,5.9c0.8,1.1,1.4,2.4,2.1,3.5
		c1.2,2.1,2.2,3,4.7,4c0.3,0.7,0.6,1.5,1,2.4c2.8-0.1,4.5,2.1,6.9,3.5c2.8-0.3,5.8,0.3,9-1c-0.3,2.2-3.7,1.1-2.9,4.1
		c4-0.5,8.2-0.8,13-0.6c2.2,1.9,6.2,1.6,9.2,3.8c3.7,0,6.9,1.5,10.1,3.4c-5.1-0.7-10.3-0.3-15.8-1.3c-0.3,0.1-0.5,0.8-1,1
		c-0.8,0.1-0.8-0.6-1.2-0.8c-1-0.5-1.2,0.7-1.2,0.7c-7.8-0.7-14.6,2.2-22.8,1c-1.6-0.6-4.2-2.2-7.1-2.4c-0.3-0.6-0.6-1.2-1-1.5
		c-3.1-1.7-4.3-5.1-7-7.2c-1.1-0.8-1.3-2.2-1.2-3.5c0.1-2.9-0.9-5.8-0.1-8.8c0.1-0.3-0.1-0.8-0.1-1.2c-1-1.4-2.3-1.5-3.7-1
		c-1.3-0.5-1.9-2.1-3.3-2c-0.9-1.8-1.2-3.4-1.2-5.2C374.1,258.1,375.1,256.8,375.7,255.3z M378.1,313.5c-1.3,0.6-1.8-0.1-1.9-1.2
		c-0.1-1.2-0.1-2.4,1.9-2.4C378.6,311.3,378.6,312.4,378.1,313.5z M392.7,325.2c-0.5,0.6-1,1.4-1.5,2.2c0.2-4-0.6-7.6-2.6-11.1
		c-0.8-1.5-0.6-3.5-0.9-5.3c0.5-0.6,0.9-0.6,1.6-0.5c0.8,1.4,0.1,3.2,0.9,4.7c0.3,0.7,1.5,0.3,1.7,1.1
		C392.7,319.2,392.7,322.2,392.7,325.2z M391.1,314.3c-0.6-1.4,0-2.8-0.6-4.2c-1.1-1.2-2.5-0.6-3.6-0.5c-1.2,1.5,0.4,3.3-1,4.5
		c-1.7-0.8-3.5-1-5.3-1c-2.2-0.4-0.6-2.4-1.9-3.7c-0.9-0.3-2.3,0-3.8,0.1v4.9c-2.2,0.6-4.4,0.2-6.8,0.2c-0.3-3.9-0.6-7.6-0.9-11.8
		c9.6-0.3,19,0,28.8,0c0.4,3.9,0.8,7.6,1.2,11.5C395,314.6,393,314.5,391.1,314.3z M399.5,314.9c-1.3-4.5-1.5-8.9-2.2-13.4h-29.7
		c0.3-1.4,1.4-1.9,1.9-2.9c10.3-0.3,20.5-0.3,31-0.1c0.6,4.4,1,8.6,1.6,13.1C401.3,312.5,400.5,313.5,399.5,314.9z M431.2,337.3
		c-0.5,1.5,0.8,3.3-1,4.8c-1-1.4-0.6-2.8-0.5-4.1c0.1-1.9,0.2-3.8-0.1-5.7c-0.8-4.4-3.7-7.4-8.5-6.5c-0.8,0.1-1.7,0.3-2.6,0.4
		c-2-5.3-1.7-11.1-3.2-16.5c-1.5-0.6-3-0.1-4.6-0.6c-0.3-1.9-0.9-3.9-0.8-6.2c2.8-1,5.7-0.2,8.5-0.6c2.8-0.3,5.7,0.1,8.5,0
		c1.1,2,1.1,4.2,1.5,6.2c-1.3,0.9-2.8,0.4-4.4,0.9c-0.1,3.2,0.6,6.4,0.9,9.6c0.1,1.4,0.6,2.7,0,4.1c-1.9,0.6-4,0.3-6,0.8
		c0,0.8,0.6,0.7,1.1,0.6c2.4-0.3,4.8-0.3,7.3,0.7c0-5.1-1.2-9.9-1.5-14.6c0.9-0.7,1.8-0.6,2.8-0.6c1.5,5.3,1.3,10.7,2.4,16
		c1.4,1.3,3.1,0.5,4.7,0.8c1.3,2.2,0.8,4.9,1,7.1c-0.3,1.1-1,1.7-2.1,2.2c-1.2-1.9,0-4.4-1.5-6.5c-1.9,0.8-2.2-1.3-3.5-1.9
		c-0.1,1.1,0.8,1.9,0.9,2.7c0.8,0.6,1.5-0.2,2.1,0.5c0.2,1.4,0.5,3,0.7,4.3C433.1,336.6,431.7,336.4,431.2,337.3z M409.4,301.5
		c0.7-1.2,1.6-2.1,2.8-2.9h19.2c1.2,2.8,0.5,5.9,1.2,8.6c-0.5,1.3-1.2,2.2-2.6,2.9c-0.6-2.8-0.7-5.6-1.7-8.6
		C421.8,301.7,415.7,301.8,409.4,301.5z M469.5,341.7c-2.9,1.2-5-0.7-7.4-0.8c-7.5-0.3-15.1-0.2-22.6-0.3c-1.8-0.1-3.6,0-5.4,0
		c-0.6,0-1.3,0.1-1.8-1.2c4.4-0.6,8.6,0,12.8,0.1c4.2,0.1,8.5,0.1,12.7,0.2c4.3,0.1,8.7,0,13.2,0
		C470.7,340.9,469.9,341.2,469.5,341.7z M469.5,309.5c1.4,3.9,1.5,7.8-1.2,11.5c-1.8,2.5-4.1,3.5-7,3.6c-1.7,0-3.3,0-5.3,0
		c0.2,2.2,0.3,4.1,0.6,6c1.6,0.8,3.3,0.2,4.8,0.7c0.7,1.8,0.6,3.7,0.5,5.8h-17.3c-0.5-3.6-1.1-7.3,2.8-9.8c1.1,0.8,0.4,1.9,0.6,2.6
		c-0.6,0.9-1.4,0.3-2,0.8c0.9,1,1.8,0.6,3.1,0.4c-0.9-7.2-1.7-14.2-2.6-21.1c-1.9-0.8-4,0.5-5.8-1.2c-0.3-1.8-0.8-3.7-0.8-5.7
		c1.3-0.8,2.6-0.3,3.8-0.3c5,0,9.9,0.1,14.9,0.1c2.4,0.1,4.9,0.5,6.9,1.9c0.6,0.4,1.2,0.9,1,1.7
		C468.6,306.5,469.1,308.4,469.5,309.5z M466.4,327v6.7c-0.7,0.8-1.6,1.7-2.8,2.9c-0.3-2.2-0.6-4-0.9-5.9c-1.5-0.8-3.1-0.3-4.6-1.1
		c-0.5-1.1-0.3-2.4-0.4-3.8C460.7,325.2,463.2,328,466.4,327z M470.4,320.1c-0.1,0.2-0.3,0.6-0.5,0.2c-0.2-0.2,0-0.5,0.3-0.6
		c4-6.5-1-17.9-10.5-17.7c-6,0.1-12.1-0.5-18.1-0.3c-0.5,0-1-0.1-1.5-0.2c-0.4-1.2,0.6-1.7,1.1-2.5c0.3-0.1,0.6-0.2,0.9-0.2
		c6.6,0,13.1-0.1,19.7,0.1c5.2,0.2,9.4,2.5,11.3,7.7C475.2,311.9,474.3,316.3,470.4,320.1z M482.7,321.4c-0.4,0-0.8,0-1.2,0
		c-0.6-7.7,0.2-15.4,0-23.5c-40.3-0.3-80.4-0.6-120.7-0.9c-0.5,6.2,0,12.2,0,18.3c0,6,0,12.1,0,17.8c-0.7,1.1-1.4,1.2-2.3,1
		c-0.5-12.7,0.2-25.5-0.6-38.6c42.1,1.2,83.6,0.1,125.5,1.1C483.1,304.9,483.8,313.2,482.7,321.4z"/>
	<path class="st1" d="M423.5,30.5c0.9,4.2,1.7,8,2.6,11.9c1.7,7.4,3.7,14.8,5.3,22.2c1.4,6.2,1.3,12.6,0.3,18.9
		c-1.7,9.9-4.4,19.6-5.8,29.6c-0.3,1.9,0.2,4-1,5.9c-1.3-2.3-1.3-4.8-1.9-7.1c-1.6-6.8-3.2-13.6-4.9-20.4
		c-1.9-7.8-2.2-15.6-1.2-23.7c1.5-11.8,4.2-23.4,5.5-35.2C422.6,32.1,422.4,31.3,423.5,30.5z M425.6,98c0.6-3.2,1.9-5.8,2.7-8.7
		c3.5-11.3,2.3-22.4-1.6-33.3c-0.4-1.2-0.8-2.6-2.4-3.1c-1.4,2.8-1.5,7.6-0.3,10.8c2.2,6.1,3.3,12.2,1.7,18.7
		c-0.6,2.5-1.6,4.8-2.8,7.1C421.5,92.6,422.6,96.4,425.6,98z"/>
	<path class="st1" d="M385.8,314.1c-1.7-0.8-3.5-1-5.3-1c-0.1-1.7,0.4-3.3-0.5-4.9c-2.1-0.2-4-0.1-6,0.1c-0.8,1.7,0.3,3.3-0.4,4.9
		c-1.5,0.1-2.8,0.2-4.4-0.1c-0.1-3-0.3-5.8-0.5-9c9,0,17.6,0,26.4,0c0.3,3.1,0.6,6.1,0.8,9.2c-1.5,0.1-2.6,0.1-3.7-0.3
		c-0.9-1.5-0.1-3.3-1.3-4.6c-1.9,0.1-3.9-0.5-5.8,0.3C385.3,310.6,385.6,312.3,385.8,314.1z"/>
	<path class="st1" d="M418.8,323.9c-1-4.9-1-10.1-2.2-15.1c-1.5-1-3.3-0.1-5.1-0.8c-0.7-1.2-0.4-2.6-0.5-4.2c5.1,0,10.1,0,15.1,0
		c0.8,1.2,0.8,2.5,1,4c-1.5,0.1-2.8,0.2-4.5,0.3c1.2,5.1,0.2,10.2,2.2,15C422.9,323.8,420.8,323.4,418.8,323.9z"/>
	<path class="st2" d="M470.4,320.1c-0.1,0.2-0.3,0.6-0.5,0.2c-0.2-0.2,0-0.5,0.3-0.6C470.3,319.9,470.4,320,470.4,320.1z"/>
	<path class="st1" d="M290.7,239.8c-0.6-1.5-1.6-2.7-2.6-4c-1.3-1.7-1.1-3.1,0.8-4.2c0.9-0.6,1.5-1.6,2.6-1.7c0.3,0,0.6-0.1,1-0.1
		c1,1.2,2.1,2.4,3.2,3.5c0.5,0.6,1,1.3,1.7,1.4c3.1,0.6,3.7,3.4,4.7,5.7c2.6,6.2,3.3,12.6,3.7,19.2c0.6,8.4-1.1,16.4-3.2,24.4
		c-1.3,5.1-2.9,10.1-5.6,14.8c-3.1,5.6-9.6,9-15.8,8.1c-4.6-0.6-9.2-1.6-13.5-3.3c-2.2-0.8-3.9-2-4.8-4.3c-0.8-2.1-2.1-4-2.2-6.5
		c2.2-1.1,1.2-4.2,3.3-5.6c2.3,0.3,2.9,2.6,4.6,3.8c1.1-1.4,2-2.8,3.7-2.8c2.4-2.7,2.2-6.1,3.3-9.1c2.3-6.7,4.2-13.5,6-20.3
		c0.8-3.3,1.3-6.9,1.2-10.4c-0.1-1.8,0.3-3.3,2.6-4.2c2,5.6,1.2,11.5,2.8,17.1c1.1-1.5,0.8-3.2,0.9-4.9c0.1-1.8,0.1-3.6,0.1-5.4
		c0.1-1.7,1-3.5-0.1-5.3c-1-1.5-1.5-3.3-1.5-5c0.6-1.2,1.5-1.3,2.4-0.7c0.6,1.5,1.6,2.6,2.5,3.9c0.3,0.6,0.2,1.7,1.5,1.5
		c0-0.9-0.3-1.5-1-2C292.6,242.2,292,240.7,290.7,239.8z"/>
	<path class="st3" d="M331.5,138.9c-1.4-4.9,2-7.3,5-9.8c-0.3-0.6-0.6-0.7-1.1-0.6c-4.5,0.8-8,2.8-9.8,7.3c-0.9,2.2-1.3,4.6-3.5,6
		c-4,0.2-7.8,0.6-11.7,0.6c-0.7-0.8-1.3-1.5-1.9-2.2c-0.4-3.4,1.7-5.9,2.9-8.6c0.5-1.2,0.9-2.6,1.5-3.7c2-4.6,6.2-7,9.7-10.1
		c0.6-0.5,1.2-0.8,2-1c3.1-0.3,5.6-2,8.3-3.5c2.2-1.1,4.7-1.6,7.1-2.3c3.4-1,6.7-2.8,10.5-1.7c0.6,0.2,1.6-0.5,2.6-0.8
		c1.4,1.3,3.6,0.2,5.1,1.5c1,0.8,1.9,1.6,2.4,2c0.3,3-1.3,3.7-2.7,4.6c-0.2,1.2,0.6,2.2-0.2,3.7c2.7,0,4.9-0.1,7,0
		c2.8,0.1,5.4,1,8.1,2.2c4.4,1.8,8,5,12.6,6.6c3.5,1.2,5.8,5.5,5.2,9.5c-0.3,1.7-0.6,3.5-1.6,5.3c-9.8-1.1-19.8-0.7-29.6-2.1
		c-0.9-0.3-1.5,0.6-2.6,0.7c-1.9-1.2-4.4-0.6-6.7-0.7c-4.6-0.1-9.1-0.5-13.6-0.6C334.4,141.2,333,139.9,331.5,138.9z"/>
	<path class="st1" d="M266.8,253.7c1-0.7,1.8-1,2.7-0.8c0.4,2.4-0.3,4.8,0.2,7.1c1.1,0.3,1.9-0.1,2.8-0.6c2.2-1,3.5-0.5,4,1.8
		c0.7,2.8,0.4,5.7-0.9,8c-2.2,3.9-3.5,8.3-6.1,11.9c-0.2,0.3-0.6,0.6-0.8,1c-1.6,0-3-1-4.9-0.6C261.4,271.8,265,262.9,266.8,253.7z"
		/>
	<path class="st1" d="M362.5,156.6c-5.6,1.5-10.3,0.3-14.9-0.8c-0.4-1.3-0.8-2.4-1.1-3.5c0.7-1.7,2.2-2.4,3.3-3.1
		c1.5,0,1.2,1.5,2.2,1.9c3.6,0.2,7.2,1.2,11.1,1.2c3.9-1.4,8.3-1.2,12.6-1.7c0.8,0.8,0.6,1.7,0.3,2.8c-2,1.5-4.4,2.4-7,2.6
		C366.6,156.3,364.4,158.5,362.5,156.6z"/>
	<path class="st1" d="M549.6,300.7c-0.8-0.6-1.7-0.5-2.2-0.7c-1.9-2.6-3-5.7-4.6-8.3c-1.2-1.8-2-3.9-3.4-5.6c-2.2-2.8-2-6.4-2.6-9.6
		c-1.1-5.8,0.6-11.2,1.7-17.1c-1.1-1.3-0.8-3.1-0.7-5c0.6-7.5,3.9-14.2,5.2-21.5c0.3-1.5,1.3-2.6,1.4-4c1.7-0.8,3.4-0.1,4.6-0.8
		c1,0.3,1.4,0.8,1.5,1.5c0.7,4.3,2,8.5,2.2,12.8c0,0.6-0.1,1.2,0.2,1.5c2,2.6,1.8,5.7,2.1,8.7c0.4,4.1,2.8,7.4,4.2,11.2
		c2.2-4.3,1.9-9,2.8-13.5c0.9-4.4,3.1-8.5,2.6-12.5c0.9-1.4,1.8-0.8,2.5-1.2c0.6-1.3-0.1-3.3,1.9-4c1.2-0.1,1.7,0.8,2.1,1.7
		c1.3,3.3,3,6.2,4.8,9.3c1.5,2.6,1.6,5.8,1.5,8.7c-0.2,7.4-0.2,14.8-2.3,21.9c-0.4,1.4-0.3,2.8,0.3,4c1.2,2.2,1.2,4.6,2.1,6.9
		c0.7,1.8,0.3,4-0.7,5.8c-1,1.9-1.7,3.9-2,6c-0.8,4.4-3,8.1-5.3,11.8c-1.7,2.7-6.3,4.1-9.9,1.8c-1.7-1.1-3.4-2.2-5.1-3.3
		C552.3,305.6,552.3,305.6,549.6,300.7z"/>
	<path class="st3" d="M522.5,114.9c1.1,0.1,2.1,0.1,3.2,0.3c3.6,3.5,8.5,5.6,10.5,10.9c1.6,4.2,4,8.2,3.7,12.9
		c-0.1,1.7,1.3,3.2,0.4,4.9c-3.8,2.2-8,2-12.1,1.7c-5.3-0.4-10.5-0.5-15.8-0.9c-4.1-0.3-8.1-0.5-12.2-0.4c-1.9,0.1-3.8-0.3-5.6,0.3
		c-0.7,0.2-1.5,0.3-2.2,0.1c-2-0.6-4-0.7-6-0.4c-5.5,0.6-11,0.6-16.5,0.3c-1.2-0.1-2.2,0.8-3.3,0.9c-2-2-2.3-6.2-0.3-8.5
		c4-4.7,8.5-9,13.4-12.7c2.1-1.6,4.7-2.6,7.4-3.3c1.5-0.3,2.7-1,4-1.7c-0.6-2.4-2.8-1.2-3.7-2.2c-2.9,1-4.9,3.3-7.4,4.4
		c-2.7-3.3-2.2-5.2,1-6.9c2.8-1.5,5.9-2.4,8.8-3.8c4-1.9,8.3-1.9,12.6-1.2c4.6,0.7,9.1,1.5,13.6,2.4
		C518.3,112.1,521,112.3,522.5,114.9z"/>
	<path class="st1" d="M493.7,156.1c1.7-0.4,4.4-0.8,6.7-2.6c0.8-0.7,2.2-0.3,3.7-0.2c0.1,3.3-2.2,4.9-4.1,6.7
		c-2.5,0.1-4.9,0.3-7.3-0.3c-1.7-0.4-3.2,0.8-4.9,0.3c-2.7-0.7-5.5-1.1-8.3-1.4c-2.2-0.2-4.1-0.8-6-2.2c-0.5-1.9-1.2-4,0.6-5.9
		C480.2,152.9,486.3,155,493.7,156.1z"/>
	<path class="st2" d="M425.6,98c-3.1-1.5-4.2-5.4-2.6-8.5c1.1-2.3,2.1-4.6,2.8-7.1c1.7-6.5,0.5-12.6-1.7-18.7
		c-1.1-3.2-1.1-8,0.3-10.8c1.5,0.5,1.9,1.8,2.4,3.1c3.9,11,5.1,22,1.6,33.3C427.5,92.1,426.2,94.8,425.6,98z"/>
	<path class="st2" d="M431.2,332c0.5,1,0.7,2.1,0.4,3.8C430.7,334.2,430.9,333.1,431.2,332z"/>
	<path class="st2" d="M429.6,327.7c-0.6-0.1-0.7-0.6-1-1C429.5,326.6,429.7,327,429.6,327.7L429.6,327.7z"/>
	<path class="st1" d="M466.6,306.6c2.4,3.3,3.2,6.9,2.1,10.8c-0.8,2.8-2.5,4.5-5.4,5.2c-2.7,0.6-5.5,0.1-8.4,0.4
		c-0.3,2.9,0.3,5.6,0.9,8.3c1.5,1.1,3.2,0.3,4.8,1c0.6,1,0.3,2.2,0.3,3.5c-5.2,0-10.3,0-15.3,0c-0.1-1.2-0.3-2.4-0.3-3.5
		c1.5-0.6,3.1,0.1,4.8-0.8c-0.3-7.4-1.5-14.9-2.6-22.3c-1.9-1.1-3.7-0.3-5.5-0.9c-0.8-1.2-0.8-2.6-0.8-4.1c4.6-0.6,9.1-0.4,13.6-0.3
		c1.9,0,3.8,0.1,5.7,0.3C462.8,304.4,464.8,305.4,466.6,306.6L466.6,306.6z M453.8,313.7L453.8,313.7c0,1.5-0.2,3.1,1,4.4
		c1.6,0.6,3.2,0.2,4.7,0.2c1.2,0,2.2-0.6,2.8-1.8c1.8-3.5-0.5-7.7-4.4-7.8c-1.4-0.1-2.9-0.2-4.3,0.2
		C453,310.6,453.4,312.1,453.8,313.7z"/>
	<path class="st2" d="M453.8,313.7c0.6-0.8-0.1-1.9,0.6-2.9c1.6-1,3.5-0.8,5.1,0.3c2,1.4,1.4,3.5,1,5.5c-1.7,1.6-3.6,0.9-5.2,0.8
		C453.8,316.4,455.1,314.5,453.8,313.7L453.8,313.7z M460,315.5c-2.4-0.7-1.4-2.8-1.9-4.2c-1,0-1.9-0.6-2.8,0.3
		c0.1,1.6-0.4,3.3,0.7,4.7C457.2,316.6,458.4,316.9,460,315.5z"/>
</g>
</svg>
